# xmcd CD database file
#
# Track frame offsets:
#	150
#	13955
#	34354
#	58471
#	85636
#	107311
#	126736
#	145411
#	161873
#	175861
#	196336
#	214395
#	230145
#	251483
#	273345
#
# Disc length: 3779 seconds
#
# Revision: 0
# Processed by: cddbd v1.5.2PL0 Copyright (c) Steve Scherf et al.
# Submitted via: CDex 1.51
#
DISCID=e90ec10f
DTITLE=FineFones Saxophone Quartet - Funk-A-Lot
DYEAR=2011
DGENRE=Jazz
TTITLE0=Funk-A-Lot
TTITLE1=Anima
TTITLE2=Presidential Suite
TTITLE3=Shades of Light
TTITLE4=Eddie Who?
TTITLE5=Juliska
TTITLE6=Kind of Blues
TTITLE7=B-Flat-A-Loogoo
TTITLE8=Cuel Bloo
TTITLE9=Now and Then
TTITLE10=Little Lady
TTITLE11=Shuffle, Shuffle
TTITLE12=Seven to Heaven
TTITLE13=Waltzing Out
TTITLE14=Elegy
EXTD=YEAR: 2011
EXTT0=
EXTT1=
EXTT2=
EXTT3=
EXTT4=
EXTT5=
EXTT6=
EXTT7=
EXTT8=
EXTT9=
EXTT10=
EXTT11=
EXTT12=
EXTT13=
EXTT14=
PLAYORDER=
